<?xml version='1.0' encoding='utf-8'?>
<svg xmlns="http://www.w3.org/2000/svg" version="1.1" width="600px" height="976px" viewBox="0 0 600 976"> <g id="layer1"> <g style="fill:rgb(0,0,0); fill-opacity:1.0; stroke-linejoin: miter"> <path d="M118.81314,561.3068Q74.447205,593.67084,48.45602,605.4176Q24.853596,617.0945,-29.808554,630.7558L-56.4335,735.32983L383.81625,736.1511L368.63608,643.73456Q301.7532,618.45447,279.37518,604.9427Q255.88454,591.99695,231.02534,564.3528L119.40704,561.32294"/> </g> <g style="fill:rgb(255,255,255); fill-opacity:1.0; stroke-linejoin: miter"> <path d="M122.19842,561.69904Q114.514305,574.0482,114.40004,583.3325Q113.6062,592.4488,119.94491,611.11127Q123.06072,620.4339,129.65993,637.3782L165.6125,728.2119Q167.17883,732.1907,168.55974,735.7496L168.56142,735.7496L188.48651,735.78674L188.48784,735.78674Q223.9168,644.9874,229.77899,624.09766Q235.75677,604.39935,235.857,593.2018Q236.28125,581.59143,230.92178,567.009L230.89703,566.93506L122.19842,561.69904 Z"/> </g> <g style="fill:rgb(0,0,0); fill-opacity:1.0; stroke-linejoin: miter"> <path d="M175.47662,330.46567Q158.52364,329.504,134.40155,348.00766Q109.71602,365.5548,102.92668,383.17297Q90.22455,410.41452,110.72854,489.11383L233.84064,501.3614Q252.09839,491.82483,254.931,467.8848Q257.5315,450.63147,256.62576,421.1648Q255.54453,388.78067,252.05862,380.4892Q248.08713,365.8338,221.35504,348.12186Q194.50314,330.80832,175.65384,330.46768"/> </g> <g style="fill:rgb(255,210,149); fill-opacity:1.0; stroke-linejoin: miter"> <path d="M186.32709,376.91678Q153.53006,377.298,133.14462,394.22418Q121.477356,404.57327,116.67561,422.0801Q112.019875,437.48987,111.64867,471.67456L102.42555,448.31696Q94.340485,444.27823,94.08391,458.82056Q93.8495,482.1465,98.90246,495.6302Q102.68361,504.7613,112.99634,501.98788Q114.15648,517.2214,115.63433,523.41455Q116.63604,528.76,121.34398,537.52356L123.7579,564.9118Q124.93383,572.54584,127.355515,577.3005Q130.87221,588.6648,175.36623,624.66125L186.7738,624.4485Q220.49704,597.14465,225.30026,586.77136Q228.61896,580.8462,229.44516,574.27234L229.99594,569.0103L230.71112,548.20844Q237.36127,536.94965,239.45667,529.37115Q241.77414,522.08154,244.03271,503.608Q254.01614,502.7205,258.0202,494.80643Q262.9765,485.11743,264.23975,465.42447Q264.9233,444.71887,256.81464,446.17764Q253.6058,447.1279,251.06265,452.5017Q249.8742,454.98517,248.65274,458.84677L245.41028,470.51675Q243.5328,409.26367,226.9707,392.6119Q214.22092,377.69394,186.45912,376.9186"/> </g> <g style="fill:rgb(255,0,0); fill-opacity:1.0; stroke-linejoin: miter"> <path d="M176.18314,627.38007L158.36374,642.49524Q164.10602,657.053,162.25827,665.1157Q160.76244,674.11115,149.9824,688.6709L166.09282,735.74493L168.56142,735.7496L188.48651,735.78674L188.48973,735.78674L188.63713,735.787L198.79654,709.5413L191.28558,690.98364L187.63747,681.0504Q184.73048,672.5444,185.09592,668.3202Q185.26494,665.28925,187.43954,662.36536L203.43507,642.9234L186.38412,627.8722L176.25142,627.38336L176.18314,627.38007 Z"/> </g> <g style="fill:rgb(255,255,255); fill-opacity:1.0; stroke-linejoin: miter"> <path d="M211.87009,522.60254L178.1001,529.41583L147.70251,526.5427Q168.09438,542.9953,180.96524,542.16046Q187.51028,541.77026,194.53448,537.29144Q200.73827,533.51605,211.86304,522.6105"/> </g> <g style="fill:rgb(255,0,0); fill-opacity:0.047058824; stroke-linejoin: miter"> <path d="M195.16806,502.15237L186.30875,511.59048Q178.85603,511.80075,174.64514,511.47903Q171.83183,511.27063,169.29843,510.81894Q167.93521,510.57983,162.90514,509.41602L161.2406,509.12692Q159.77592,508.9511,159.77339,509.55313Q160.02263,510.89236,163.7696,513.8862Q167.048,516.43866,170.62349,518.10004Q176.26328,520.75836,181.42657,519.7051Q187.9475,518.2791,192.12042,513.0694Q195.5229,508.651,195.17314,502.23764"/> </g> <g style="fill:rgb(255,0,0); fill-opacity:0.05490196; stroke-linejoin: miter"> <path d="M121.73518,537.91534L179.59975,631.7571Q227.92114,553.3855,230.33743,548.2001Q198.94608,590.5747,177.80536,587.88116Q166.54855,586.8379,153.04416,574.63354Q141.74695,564.57056,121.84617,538.0602"/> </g> <g> <g style="fill:rgb(255,255,255); fill-opacity:1.0; stroke-linejoin: miter"> <path d="M145.09647,459.9872Q142.68504,460.03516,140.97926,461.70993Q139.31094,463.45596,139.29039,465.82227Q139.3377,468.23218,140.99478,469.9298Q142.7107,471.6007,145.12068,471.63693Q147.5323,471.59464,149.2424,469.92313Q150.91487,468.18002,150.94016,465.81363Q150.90616,463.41235,149.22745,461.68604Q147.50758,460.01813,145.09729,459.9872"/> </g> <g style="fill:rgb(0,0,0); fill-opacity:1.0; stroke-linejoin: miter"> <path d="M145.10023,461.91248Q143.4887,461.94427,142.35583,463.05652Q141.23848,464.2019,141.21564,465.8114Q141.23906,467.42178,142.35329,468.5651Q143.51082,469.6933,145.11546,469.7117Q146.72147,469.69183,147.87608,468.5662Q148.99283,467.42032,149.0149,465.81085Q148.99069,464.20044,147.87582,463.05765Q146.71762,461.93,145.11293,461.91245"/> </g> </g> <g> <g style="fill:rgb(255,255,255); fill-opacity:1.0; stroke-linejoin: miter"> <path d="M207.60696,458.5655Q205.19554,458.61343,203.48976,460.2882Q201.82144,462.03424,201.80089,464.40054Q201.8482,466.81046,203.50528,468.5081Q205.22119,470.179,207.63118,470.2152Q210.0428,470.1729,211.7529,468.5014Q213.42537,466.7583,213.45065,464.3919Q213.41666,461.99063,211.73795,460.2643Q210.01808,458.5964,207.60779,458.5655"/> </g> <g style="fill:rgb(0,0,0); fill-opacity:1.0; stroke-linejoin: miter"> <path d="M207.61073,460.49075Q205.99919,460.52255,204.86633,461.6348Q203.74898,462.78018,203.72614,464.38968Q203.74956,466.00006,204.86378,467.14337Q206.02132,468.27158,207.62596,468.28998Q209.23196,468.2701,210.38658,467.14447Q211.50333,465.9986,211.52539,464.38913Q211.50119,462.77872,210.38632,461.63593Q209.22812,460.50827,207.62343,460.49072"/> </g> </g> <g style="fill:rgb(0,0,0); fill-opacity:1.0; stroke-linejoin: miter"> <path d="M133.80832,447.05103L155.3606,446.52698L155.59048,451.02643L134.4036,452.661L125.93358,457.63812L133.80325,447.0578"/> </g> <g style="fill:rgb(0,0,0); fill-opacity:1.0; stroke-linejoin: miter"> <path d="M221.66798,447.05103L200.11569,446.52698L199.8858,451.02643L221.07271,452.661L229.54272,457.63812L221.67305,447.0578"/> </g> </g> </svg>